<?xml version="1.0" encoding="UTF-8" standalone="no" ?>
<!DOCTYPE svg PUBLIC "-//W3C//DTD SVG 1.1//EN" "http://www.w3.org/Graphics/SVG/1.1/DTD/svg11.dtd">
<svg xmlns="http://www.w3.org/2000/svg" xmlns:xlink="http://www.w3.org/1999/xlink" version="1.1" width="1080" height="1080" viewBox="0 0 1080 1080" xml:space="preserve">
<desc>Created with Fabric.js 5.2.4</desc>
<defs>
</defs>
<g transform="matrix(1 0 0 1 540 540)" id="d782c70a-69c8-40e5-8842-03c7de43dd5a"  >
<rect style="stroke: none; stroke-width: 1; stroke-dasharray: none; stroke-linecap: butt; stroke-dashoffset: 0; stroke-linejoin: miter; stroke-miterlimit: 4; fill: rgb(255,255,255); fill-rule: nonzero; opacity: 1; visibility: hidden;" vector-effect="non-scaling-stroke"  x="-540" y="-540" rx="0" ry="0" width="1080" height="1080" />
</g>
<g transform="matrix(1 0 0 1 540 540)" id="0df037ca-9ba8-4fa2-a1fa-28ab6ad2dc36"  >
</g>
<g transform="matrix(1 0 0 1 540 540)"  >
<g style="" vector-effect="non-scaling-stroke"   >
		<g transform="matrix(1 0 0 1 0 0)"  >
<path style="stroke: none; stroke-width: 1; stroke-dasharray: none; stroke-linecap: butt; stroke-dashoffset: 0; stroke-linejoin: miter; stroke-miterlimit: 4; fill: rgb(98,186,27); fill-rule: nonzero; opacity: 1;" vector-effect="non-scaling-stroke"  transform=" translate(-249.75, -249.55)" d="M 338.9 210.3 L 338.9 200.60000000000002 C 338.9 181.70000000000002 323.5 166.3 304.59999999999997 166.3 L 272.4 166.3 C 271.29999999999995 158.5 264.59999999999997 152.5 256.5 152.5 L 255.9 152.5 L 255.9 137.1 C 261.2 134.79999999999998 264.9 129.5 264.9 123.39999999999999 C 264.9 115.1 258.2 108.3 249.89999999999998 108.3 C 241.59999999999997 108.3 234.79999999999998 115.1 234.79999999999998 123.39999999999999 C 234.79999999999998 129.5 238.49999999999997 134.79999999999998 243.79999999999998 137.1 L 243.79999999999998 152.5 L 243.1 152.5 C 235 152.5 228.29999999999998 158.5 227.2 166.3 L 195 166.3 C 176.1 166.3 160.7 181.70000000000002 160.7 200.60000000000002 L 160.7 210.3 C 149.29999999999998 211.10000000000002 140.39999999999998 220.60000000000002 140.39999999999998 232.20000000000002 C 140.39999999999998 243.8 149.29999999999998 253.3 160.7 254.10000000000002 L 160.7 263.8 C 160.7 282.7 176.1 298.1 195 298.1 L 222.7 298.1 L 222.7 309.70000000000005 L 186.2 309.70000000000005 C 172.1 309.70000000000005 160.7 321.1 160.7 335.20000000000005 L 160.7 365.30000000000007 C 160.7 379.30000000000007 172.1 390.80000000000007 186.2 390.80000000000007 L 313.29999999999995 390.80000000000007 C 327.29999999999995 390.80000000000007 338.79999999999995 379.30000000000007 338.79999999999995 365.30000000000007 L 338.79999999999995 335.20000000000005 C 338.79999999999995 321.20000000000005 327.29999999999995 309.70000000000005 313.29999999999995 309.70000000000005 L 276.79999999999995 309.70000000000005 L 276.79999999999995 298.1 L 304.49999999999994 298.1 C 323.3999999999999 298.1 338.79999999999995 282.70000000000005 338.79999999999995 263.8 L 338.79999999999995 254.10000000000002 C 350.19999999999993 253.3 359.09999999999997 243.8 359.09999999999997 232.20000000000002 C 359.2 220.6 350.3 211.1 338.9 210.3 z M 160.8 249.5 C 152 248.7 145.10000000000002 241.2 145.10000000000002 232.2 C 145.10000000000002 223.2 152.00000000000003 215.7 160.8 214.89999999999998 L 160.8 249.5 z M 239.4 123.3 C 239.4 117.5 244.1 112.8 249.9 112.8 C 255.70000000000002 112.8 260.3 117.5 260.3 123.3 C 260.3 126.8 258.5 129.9 255.9 131.8 C 255.20000000000002 132.3 254.4 132.70000000000002 253.6 133 C 252.9 133.3 252.1 133.5 251.29999999999998 133.6 C 250.79999999999998 133.6 250.39999999999998 133.7 249.89999999999998 133.7 C 249.39999999999998 133.7 248.89999999999998 133.7 248.49999999999997 133.6 C 247.69999999999996 133.5 246.89999999999998 133.29999999999998 246.19999999999996 133 C 245.39999999999995 132.7 244.59999999999997 132.3 243.89999999999995 131.8 C 241.1 130 239.4 126.8 239.4 123.3 z M 251.3 138.3 L 251.3 152.5 L 248.4 152.5 L 248.4 138.3 C 248.9 138.4 249.3 138.4 249.8 138.4 C 250.4 138.4 250.8 138.4 251.3 138.3 z M 243.1 157.1 L 256.5 157.1 C 262.1 157.1 266.7 161.1 267.8 166.29999999999998 L 231.8 166.29999999999998 C 232.9 161 237.5 157.1 243.1 157.1 z M 313.4 314.3 C 324.9 314.3 334.29999999999995 323.7 334.29999999999995 335.2 L 334.29999999999995 365.3 C 334.29999999999995 376.8 324.9 386.2 313.4 386.2 L 186.3 386.2 C 174.70000000000002 386.2 165.4 376.8 165.4 365.3 L 165.4 335.2 C 165.4 323.7 174.8 314.3 186.3 314.3 L 313.4 314.3 z M 227.4 309.7 L 227.4 298.09999999999997 L 272.4 298.09999999999997 L 272.4 309.7 L 227.4 309.7 z M 334.3 263.8 C 334.3 280.2 321 293.5 304.6 293.5 L 195 293.5 C 178.6 293.5 165.3 280.2 165.3 263.8 L 165.3 200.5 C 165.3 184.1 178.60000000000002 170.8 195 170.8 L 304.6 170.8 C 321 170.8 334.3 184.10000000000002 334.3 200.5 L 334.3 263.8 z M 338.9 249.5 L 338.9 214.9 C 347.7 215.70000000000002 354.59999999999997 223.20000000000002 354.59999999999997 232.20000000000002 C 354.6 241.2 347.7 248.7 338.9 249.5 z" stroke-linecap="round" />
</g>
		<g transform="matrix(1 0 0 1 0.1 -17.35)"  >
<path style="stroke: none; stroke-width: 1; stroke-dasharray: none; stroke-linecap: butt; stroke-dashoffset: 0; stroke-linejoin: miter; stroke-miterlimit: 4; fill: rgb(98,186,27); fill-rule: nonzero; opacity: 1;" vector-effect="non-scaling-stroke"  transform=" translate(-249.85, -232.2)" d="M 286.4 197.9 L 213.29999999999998 197.9 C 194.39999999999998 197.9 179 213.3 179 232.2 C 179 251.1 194.4 266.5 213.3 266.5 L 286.4 266.5 C 305.29999999999995 266.5 320.7 251.1 320.7 232.2 C 320.7 213.3 305.3 197.9 286.4 197.9 z M 286.4 261.9 L 213.29999999999998 261.9 C 196.89999999999998 261.9 183.6 248.59999999999997 183.6 232.2 C 183.6 215.79999999999998 196.9 202.5 213.29999999999998 202.5 L 286.4 202.5 C 302.79999999999995 202.5 316.09999999999997 215.8 316.09999999999997 232.2 C 316.1 248.5 302.8 261.9 286.4 261.9 z" stroke-linecap="round" />
</g>
		<g transform="matrix(1 0 0 1 0.1 98.45)"  >
<path style="stroke: none; stroke-width: 1; stroke-dasharray: none; stroke-linecap: butt; stroke-dashoffset: 0; stroke-linejoin: miter; stroke-miterlimit: 4; fill: rgb(98,186,27); fill-rule: nonzero; opacity: 1;" vector-effect="non-scaling-stroke"  transform=" translate(-249.85, -348)" d="M 295.2 322.5 L 204.5 322.5 C 190.5 322.5 179 334 179 348 C 179 362 190.5 373.5 204.5 373.5 L 295.2 373.5 C 309.3 373.5 320.7 362 320.7 348 C 320.7 334 309.3 322.5 295.2 322.5 z M 295.2 369 L 204.5 369 C 193 369 183.6 359.6 183.6 348.1 C 183.6 336.6 193 327.20000000000005 204.5 327.20000000000005 L 295.2 327.20000000000005 C 306.8 327.20000000000005 316.09999999999997 336.6 316.09999999999997 348.1 C 316.1 359.6 306.7 369 295.2 369 z" stroke-linecap="round" />
</g>
		<g transform="matrix(1 0 0 1 -32.15 -17.45)"  >
<path style="stroke: none; stroke-width: 1; stroke-dasharray: none; stroke-linecap: butt; stroke-dashoffset: 0; stroke-linejoin: miter; stroke-miterlimit: 4; fill: rgb(98,186,27); fill-rule: nonzero; opacity: 1;" vector-effect="non-scaling-stroke"  transform=" translate(-217.6, -232.1)" d="M 217.6 216.9 C 209.2 216.9 202.4 223.8 202.4 232.1 C 202.4 240.5 209.3 247.29999999999998 217.6 247.29999999999998 C 226 247.29999999999998 232.79999999999998 240.39999999999998 232.79999999999998 232.1 C 232.8 223.8 225.9 216.9 217.6 216.9 z M 217.6 242.8 C 211.79999999999998 242.8 207 238 207 232.20000000000002 C 207 226.3 211.8 221.60000000000002 217.6 221.60000000000002 C 223.5 221.60000000000002 228.2 226.40000000000003 228.2 232.20000000000002 C 228.2 238 223.4 242.8 217.6 242.8 z" stroke-linecap="round" />
</g>
		<g transform="matrix(1 0 0 1 -40.15 98.45)"  >
<path style="stroke: none; stroke-width: 1; stroke-dasharray: none; stroke-linecap: butt; stroke-dashoffset: 0; stroke-linejoin: miter; stroke-miterlimit: 4; fill: rgb(98,186,27); fill-rule: nonzero; opacity: 1;" vector-effect="non-scaling-stroke"  transform=" translate(-209.6, -348)" d="M 209.6 339.2 C 204.79999999999998 339.2 200.79999999999998 343.2 200.79999999999998 348 C 200.79999999999998 352.8 204.7 356.8 209.6 356.8 C 214.5 356.8 218.4 352.90000000000003 218.4 348 C 218.4 343.2 214.4 339.2 209.6 339.2 z M 209.6 352.2 C 207.29999999999998 352.2 205.5 350.4 205.5 348.09999999999997 C 205.5 345.79999999999995 207.3 343.9 209.6 343.9 C 211.89999999999998 343.9 213.79999999999998 345.79999999999995 213.79999999999998 348.09999999999997 C 213.8 350.3 211.9 352.2 209.6 352.2 z" stroke-linecap="round" />
</g>
		<g transform="matrix(1 0 0 1 -0.85 98.45)"  >
<path style="stroke: none; stroke-width: 1; stroke-dasharray: none; stroke-linecap: butt; stroke-dashoffset: 0; stroke-linejoin: miter; stroke-miterlimit: 4; fill: rgb(98,186,27); fill-rule: nonzero; opacity: 1;" vector-effect="non-scaling-stroke"  transform=" translate(-248.9, -348)" d="M 248.9 339.2 C 244.1 339.2 240.1 343.2 240.1 348 C 240.1 352.8 244 356.8 248.9 356.8 C 253.70000000000002 356.8 257.7 352.90000000000003 257.7 348 C 257.7 343.2 253.8 339.2 248.9 339.2 z M 248.9 352.2 C 246.6 352.2 244.8 350.4 244.8 348.09999999999997 C 244.8 345.79999999999995 246.60000000000002 343.9 248.9 343.9 C 251.2 343.9 253.1 345.79999999999995 253.1 348.09999999999997 C 253.1 350.3 251.2 352.2 248.9 352.2 z" stroke-linecap="round" />
</g>
		<g transform="matrix(1 0 0 1 38.55 98.45)"  >
<path style="stroke: none; stroke-width: 1; stroke-dasharray: none; stroke-linecap: butt; stroke-dashoffset: 0; stroke-linejoin: miter; stroke-miterlimit: 4; fill: rgb(98,186,27); fill-rule: nonzero; opacity: 1;" vector-effect="non-scaling-stroke"  transform=" translate(-288.3, -348)" d="M 288.3 339.2 C 283.5 339.2 279.5 343.2 279.5 348 C 279.5 352.8 283.4 356.8 288.3 356.8 C 293.20000000000005 356.8 297.1 352.90000000000003 297.1 348 C 297.1 343.2 293.1 339.2 288.3 339.2 z M 288.3 352.2 C 286 352.2 284.2 350.4 284.2 348.09999999999997 C 284.2 345.79999999999995 286 343.9 288.3 343.9 C 290.6 343.9 292.5 345.79999999999995 292.5 348.09999999999997 C 292.5 350.3 290.6 352.2 288.3 352.2 z" stroke-linecap="round" />
</g>
		<g transform="matrix(1 0 0 1 34.05 -17.45)"  >
<path style="stroke: none; stroke-width: 1; stroke-dasharray: none; stroke-linecap: butt; stroke-dashoffset: 0; stroke-linejoin: miter; stroke-miterlimit: 4; fill: rgb(98,186,27); fill-rule: nonzero; opacity: 1;" vector-effect="non-scaling-stroke"  transform=" translate(-283.8, -232.1)" d="M 283.8 216.9 C 275.40000000000003 216.9 268.6 223.8 268.6 232.1 C 268.6 240.5 275.40000000000003 247.29999999999998 283.8 247.29999999999998 C 292.2 247.29999999999998 299 240.39999999999998 299 232.1 C 299 223.8 292.2 216.9 283.8 216.9 z M 283.8 242.8 C 278 242.8 273.2 238 273.2 232.20000000000002 C 273.2 226.3 277.9 221.60000000000002 283.8 221.60000000000002 C 289.7 221.60000000000002 294.40000000000003 226.40000000000003 294.40000000000003 232.20000000000002 C 294.4 238 289.7 242.8 283.8 242.8 z" stroke-linecap="round" />
</g>
</g>
</g>
<g transform="matrix(NaN NaN NaN NaN 0 0)"  >
<g style=""   >
</g>
</g>
<g transform="matrix(NaN NaN NaN NaN 0 0)"  >
<g style=""   >
</g>
</g>
</svg>