<svg xmlns="http://www.w3.org/2000/svg" version="1.0" className="w-16 h-16 mx-auto mb-4 text-primary" width="200.000000pt" height="200.000000pt" viewBox="0 0 200.000000 200.000000" preserveAspectRatio="xMidYMid meet">

<g transform="translate(0.000000,200.000000) scale(0.100000,-0.100000)" fill="#62ba1b" stroke="none">
<path d="M128 1691 l-33 -29 0 -537 0 -537 33 -29 32 -29 310 0 310 0 -6 -32 c-7 -36 -42 -117 -70 -159 -9 -15 -14 -34 -11 -43 6 -15 36 -16 309 -14 343 3 334 1 280 80 -28 41 -42 78 -56 140 l-6 28 310 0 310 0 32 29 33 29 0 537 0 537 -33 29 -32 29 -840 0 -840 0 -32 -29z m1696 -37 c14 -5 16 -55 16 -455 l0 -449 -840 0 -840 0 0 449 c0 350 3 450 13 454 18 8 1632 8 1651 1z m-654 -1181 c7 -32 19 -70 26 -85 8 -15 14 -32 14 -38 0 -7 -70 -10 -211 -10 -197 0 -211 1 -205 18 3 9 16 52 28 94 l23 78 156 0 156 0 13 -57z" fill="#62ba1b"/>
<path d="M317 1511 c-71 -74 -80 -97 -53 -149 22 -43 122 -133 140 -126 31 12 17 49 -39 104 -30 30 -55 59 -55 65 0 6 25 35 55 65 43 42 55 61 53 80 -5 43 -32 33 -101 -39z" fill="#62ba1b"/>
<path d="M653 1573 c-24 -9 -13 -35 42 -96 30 -34 55 -67 55 -72 0 -6 -25 -35 -55 -65 -57 -56 -66 -79 -40 -100 13 -11 26 -2 85 57 62 61 70 74 70 107 0 33 -8 47 -67 107 -36 38 -69 69 -72 68 -3 0 -12 -3 -18 -6z" fill="#62ba1b"/>
<path d="M887 1573 c-4 -3 -7 -17 -7 -30 l0 -23 430 0 c375 0 431 2 436 15 4 8 1 22 -6 30 -11 13 -73 15 -430 15 -229 0 -420 -3 -423 -7z" fill="#62ba1b"/>
<path d="M537 1543 c-14 -23 -69 -255 -63 -268 3 -10 15 -15 28 -13 20 3 27 18 56 123 18 66 31 129 30 140 -3 20 -41 34 -51 18z" fill="#62ba1b"/>
<path d="M982 1428 c-18 -18 -15 -36 8 -48 13 -7 138 -10 380 -8 377 3 399 6 374 46 -10 15 -44 17 -380 20 -279 2 -373 -1 -382 -10z" fill="#62ba1b"/>
<path d="M893 1293 c-18 -7 -16 -50 3 -57 9 -3 197 -6 418 -6 335 0 405 2 422 14 15 12 17 18 8 33 -10 17 -38 18 -425 20 -228 1 -420 -1 -426 -4z" fill="#62ba1b"/>
<path d="M1252 1105 c-54 -57 -62 -71 -62 -105 0 -34 8 -48 62 -105 43 -47 67 -65 82 -63 40 6 30 40 -29 98 -30 30 -55 61 -55 70 0 9 25 40 55 70 59 58 69 92 29 98 -15 2 -39 -16 -82 -63z" fill="#62ba1b"/>
<path d="M1587 1163 c-16 -15 -4 -40 48 -94 30 -32 55 -63 55 -69 0 -6 -25 -38 -56 -70 -58 -61 -67 -92 -28 -98 15 -2 37 17 82 68 81 93 81 107 1 199 -57 65 -84 82 -102 64z" fill="#62ba1b"/>
<path d="M1402 1148 c-16 -16 -15 -93 2 -107 20 -17 44 -3 48 27 2 14 9 27 16 30 22 7 15 -72 -8 -93 -15 -14 -20 -29 -18 -54 3 -31 7 -36 28 -36 17 0 26 6 29 20 2 11 14 33 27 48 20 23 24 40 24 91 0 35 -5 67 -12 74 -7 7 -37 12 -68 12 -31 0 -61 -5 -68 -12z" fill="#62ba1b"/>
<path d="M260 1095 c-7 -8 -10 -22 -6 -30 5 -13 54 -15 403 -13 l398 3 0 25 0 25 -391 3 c-338 2 -393 0 -404 -13z" fill="#62ba1b"/>
<path d="M254 935 c-4 -8 -1 -22 6 -30 11 -13 69 -15 429 -13 l416 3 0 25 0 25 -423 3 c-371 2 -423 0 -428 -13z" fill="#62ba1b"/>
<path d="M1444 876 c-10 -26 4 -48 28 -44 17 2 23 10 23 28 0 18 -6 26 -23 28 -13 2 -25 -3 -28 -12z" fill="#62ba1b"/>
</g>
</svg>