<svg xmlns="http://www.w3.org/2000/svg"  className="w-16 h-16 mx-auto mb-4 text-primary" version="1.0" width="225.000000pt" height="225.000000pt" viewBox="0 0 225.000000 225.000000" preserveAspectRatio="xMidYMid meet">

<g transform="translate(0.000000,225.000000) scale(0.100000,-0.100000)" fill="#62ba1b" stroke="none">
<path d="M1005 2186 c-33 -8 -80 -23 -105 -33 -40 -16 -88 -18 -422 -23 -361 -5 -378 -6 -404 -26 -15 -11 -37 -33 -48 -48 -21 -27 -21 -38 -24 -724 l-2 -697 22 -45 c44 -86 38 -85 481 -88 l387 -3 0 -53 c0 -83 -15 -112 -81 -156 -46 -32 -67 -40 -102 -40 -56 0 -86 -23 -94 -72 -7 -48 2 -83 29 -108 20 -19 35 -20 219 -20 162 0 199 3 209 15 7 8 10 21 7 30 -5 12 -39 15 -199 17 l-193 3 -3 38 -3 37 446 0 446 0 -3 -37 -3 -38 -193 -3 c-160 -2 -194 -5 -199 -17 -3 -9 0 -22 7 -30 10 -12 47 -15 209 -15 184 0 199 1 219 20 27 25 36 60 29 108 -8 49 -38 72 -94 72 -35 0 -56 8 -102 40 -66 44 -81 73 -81 156 l0 53 388 3 c442 3 436 2 480 88 l22 45 -2 697 c-3 686 -3 697 -24 724 -11 15 -33 37 -48 48 -26 20 -44 21 -404 27 l-377 5 -75 28 c-91 34 -223 43 -315 22z m95 -201 l0 -145 -34 0 c-46 0 -166 38 -172 55 -13 34 86 177 151 217 54 33 55 31 55 -127z m109 125 c22 -11 53 -36 70 -57 37 -45 93 -152 85 -164 -8 -13 -132 -49 -170 -49 l-34 0 0 145 c0 80 2 145 5 145 3 0 23 -9 44 -20z m-307 -47 c-11 -16 -31 -52 -46 -80 -14 -29 -30 -53 -34 -53 -4 0 -23 13 -41 28 l-33 28 36 28 c41 31 117 76 129 76 5 0 0 -12 -11 -27z m507 -8 c31 -19 65 -43 74 -53 17 -19 17 -21 -13 -46 -17 -14 -35 -26 -39 -26 -4 0 -20 27 -36 60 -16 34 -35 66 -42 72 -14 11 -18 28 -7 28 4 0 32 -16 63 -35z m-704 -25 l-39 -40 -251 0 c-182 0 -254 -3 -263 -12 -9 -9 -12 -169 -12 -659 0 -575 2 -649 16 -663 14 -14 115 -16 969 -16 854 0 955 2 969 16 14 14 16 88 16 663 0 490 -3 650 -12 659 -9 9 -81 12 -260 12 l-249 0 -34 34 c-19 18 -35 36 -35 40 0 3 128 6 285 6 228 0 293 -3 321 -15 65 -27 64 -10 64 -738 0 -441 -4 -664 -11 -685 -23 -66 45 -62 -1054 -62 -1099 0 -1031 -4 -1054 62 -7 21 -11 244 -11 685 0 724 -1 710 62 738 26 11 95 14 328 15 l294 0 -39 -40z m-365 -150 l0 -50 -70 0 -70 0 0 50 0 50 70 0 70 0 0 -50z m251 0 l-26 -50 -82 0 -83 0 0 50 0 50 109 0 109 0 -27 -50z m168 14 l48 -36 -13 -61 c-7 -34 -16 -88 -19 -119 l-6 -58 -96 0 -95 0 7 45 c8 59 39 147 66 194 23 37 49 71 56 71 2 0 25 -16 52 -36z m829 -11 c42 -65 71 -142 78 -208 l7 -55 -97 0 -96 0 0 39 c0 21 -7 76 -16 122 -14 75 -14 83 0 91 9 5 28 20 44 33 15 13 32 25 38 25 7 0 26 -21 42 -47z m462 -3 l0 -50 -179 0 -179 0 -26 46 c-14 26 -26 48 -26 50 0 2 92 4 205 4 l205 0 0 -50z m-641 -147 c19 -124 30 -113 -119 -113 l-130 0 0 74 0 74 68 12 c37 6 87 19 112 29 30 12 47 14 51 7 4 -6 12 -43 18 -83z m-486 72 c19 -8 67 -20 106 -26 l71 -12 0 -73 0 -74 -130 0 -130 0 0 43 c0 64 21 157 35 157 7 0 28 -7 48 -15z m-387 -57 c-4 -13 -9 -47 -13 -75 l-6 -53 -53 0 c-29 0 -65 -5 -79 -12 -51 -23 -55 -46 -55 -313 0 -267 4 -290 55 -313 19 -9 210 -12 750 -12 l725 0 32 29 c31 28 33 33 36 110 5 105 -1 131 -32 131 -31 0 -36 -15 -36 -110 0 -68 -3 -81 -19 -90 -13 -7 -256 -10 -720 -10 -623 0 -701 2 -715 16 -14 13 -16 50 -16 248 0 185 3 236 14 245 9 8 209 10 732 9 l719 -3 5 -97 c5 -104 17 -131 48 -112 14 9 18 29 20 105 4 140 -27 179 -138 179 l-48 0 -11 63 c-6 35 -11 69 -11 76 0 8 42 11 163 9 l162 -3 0 -530 0 -530 -920 0 -920 0 -3 520 c-1 286 0 526 3 533 3 9 47 12 171 12 l166 0 -6 -22z m764 -1318 c0 -74 14 -115 53 -157 l20 -23 -248 0 -248 0 20 23 c39 42 53 83 53 157 l0 70 175 0 175 0 0 -70z" fill="#62ba1b"/>
<path d="M505 1424 c-8 -9 -15 -17 -15 -18 0 -10 104 -234 114 -244 20 -20 44 -4 62 44 9 24 20 44 24 44 4 0 13 -18 20 -41 14 -43 38 -63 59 -50 17 11 111 219 111 247 0 25 -20 36 -41 24 -7 -5 -29 -44 -49 -87 l-36 -77 -20 54 c-17 45 -26 55 -44 55 -19 0 -28 -10 -46 -55 l-22 -54 -37 81 c-39 87 -55 102 -80 77z" fill="#62ba1b"/>
<path d="M936 1424 c-9 -8 -16 -17 -16 -18 0 -10 104 -234 114 -244 20 -20 44 -4 62 44 9 24 20 44 24 44 4 0 13 -18 20 -41 14 -43 38 -63 59 -50 17 11 111 219 111 247 0 26 -22 37 -43 21 -9 -7 -30 -45 -48 -85 l-32 -73 -23 53 c-18 42 -27 53 -45 53 -18 0 -27 -11 -45 -55 l-22 -54 -31 68 c-17 38 -31 72 -31 77 0 5 -9 13 -19 19 -15 7 -23 6 -35 -6z" fill="#62ba1b"/>
<path d="M1366 1424 c-9 -8 -16 -17 -16 -18 0 -10 104 -234 114 -244 20 -20 44 -4 62 44 9 24 20 44 24 44 4 0 13 -18 20 -41 14 -43 38 -63 59 -50 17 11 111 219 111 247 0 26 -22 37 -43 21 -8 -7 -29 -45 -47 -85 l-33 -73 -23 53 c-31 74 -57 77 -86 9 -11 -28 -24 -51 -27 -51 -4 0 -20 32 -37 71 -32 78 -54 98 -78 73z" fill="#62ba1b"/>
<path d="M882 1208 c-23 -23 -7 -68 25 -68 21 0 35 37 23 60 -12 23 -30 26 -48 8z" fill="#62ba1b"/>
<path d="M1312 1208 c-23 -23 -7 -68 25 -68 21 0 35 37 23 60 -12 23 -30 26 -48 8z" fill="#62ba1b"/>
</g>
</svg>