<svg xmlns="http://www.w3.org/2000/svg" version="1.0" className="w-16 h-16 mx-auto mb-4 text-primary" width="128.000000pt" height="128.000000pt" viewBox="0 0 128.000000 128.000000" preserveAspectRatio="xMidYMid meet">

<g transform="translate(0.000000,128.000000) scale(0.100000,-0.100000)" fill="#62ba1b" stroke="none">
<path d="M266 1158 c-10 -14 -16 -44 -16 -80 l0 -58 -45 0 c-55 0 -110 -21 -124 -48 -7 -14 -11 -131 -11 -341 l0 -320 24 -28 24 -28 208 -5 208 -5 7 -27 c4 -14 4 -41 0 -60 -6 -28 -11 -33 -39 -36 -18 -2 -32 -7 -32 -13 0 -5 71 -9 170 -9 99 0 170 4 170 9 0 6 -14 11 -32 13 -28 3 -33 8 -39 36 -4 19 -4 46 0 60 l7 27 208 5 208 5 24 28 24 28 0 320 c0 210 -4 327 -11 341 -14 27 -69 48 -124 48 l-45 0 0 58 c0 36 -6 66 -16 80 l-15 22 -359 0 -359 0 -15 -22z m718 -4 c12 -5 16 -21 16 -65 l0 -59 -360 0 -360 0 0 59 c0 38 4 61 13 64 18 8 672 8 691 1z m14 -216 l3 -68 -200 0 -199 0 -19 37 c-25 50 -65 78 -113 78 -48 0 -88 -28 -113 -78 -15 -30 -24 -37 -48 -37 l-29 0 0 70 0 70 358 -3 357 -2 3 -67z m-748 -202 c0 -218 2 -257 16 -270 8 -9 21 -16 27 -16 7 0 167 -1 356 0 308 0 346 1 362 16 18 16 19 37 19 271 l0 253 54 0 c38 0 61 -6 77 -19 l24 -19 3 -281 3 -281 -551 0 -551 0 3 281 3 281 24 19 c16 13 39 19 77 19 l54 0 0 -254z m270 207 c45 -26 62 -81 39 -124 -16 -30 -42 -5 -34 32 5 22 1 34 -19 53 -22 22 -28 24 -55 15 -33 -12 -45 -35 -36 -71 9 -34 -19 -58 -34 -29 -32 60 17 140 87 141 13 0 37 -7 52 -17z m-25 -73 c0 -18 -6 -26 -23 -28 -24 -4 -38 18 -28 44 3 9 15 14 28 12 17 -2 23 -10 23 -28z m-142 -52 c27 -63 89 -93 154 -76 36 9 83 60 83 89 0 18 9 19 205 19 l205 0 -2 -187 -3 -188 -355 0 -355 0 -3 188 -2 187 30 0 c24 0 32 -6 43 -32z m158 -24 c10 -13 10 -17 -2 -25 -18 -11 -60 -11 -78 0 -12 8 -12 12 -2 25 17 21 65 21 82 0z m673 -456 c-3 -13 -13 -31 -22 -41 -14 -16 -52 -17 -523 -17 l-508 0 -20 26 c-44 56 -68 54 530 54 l550 0 -7 -22z m-469 -153 l0 -65 -75 0 -75 0 0 65 0 65 75 0 75 0 0 -65z" fill="#62ba1b"/>
<path d="M332 1118 c-17 -17 -15 -32 7 -52 16 -14 23 -15 41 -6 31 17 24 64 -10 68 -14 2 -31 -3 -38 -10z m40 -23 c0 -5 -5 -11 -11 -13 -6 -2 -11 4 -11 13 0 9 5 15 11 13 6 -2 11 -8 11 -13z" fill="#62ba1b"/>
<path d="M442 1118 c-18 -18 -14 -46 7 -58 25 -13 48 -4 56 21 12 38 -35 65 -63 37z m38 -23 c0 -8 -4 -15 -10 -15 -5 0 -10 7 -10 15 0 8 5 15 10 15 6 0 10 -7 10 -15z" fill="#62ba1b"/>
<path d="M547 1123 c-26 -26 12 -80 47 -67 21 8 30 42 16 59 -13 15 -51 20 -63 8z m40 -39 c-9 -9 -28 6 -21 18 4 6 10 6 17 -1 6 -6 8 -13 4 -17z" fill="#62ba1b"/>
<path d="M902 1110 c-11 -17 -10 -23 3 -37 14 -14 18 -14 36 2 18 17 18 19 3 37 -22 23 -26 23 -42 -2z" fill="#62ba1b"/>
<path d="M660 1095 c0 -13 14 -15 93 -13 53 2 92 7 92 13 0 6 -39 11 -92 13 -79 2 -93 0 -93 -13z" fill="#62ba1b"/>
<path d="M655 770 c-11 -17 17 -21 145 -18 88 2 125 7 128 16 5 15 -263 18 -273 2z" fill="#62ba1b"/>
<path d="M640 680 c-15 -15 -20 -33 -20 -75 0 -88 12 -95 168 -95 163 0 172 5 172 95 0 90 -9 95 -172 95 -115 0 -130 -2 -148 -20z m290 -29 c14 -28 12 -87 -4 -100 -9 -8 -56 -11 -142 -9 l-129 3 -3 49 c-5 78 -9 76 137 76 119 0 131 -2 141 -19z" fill="#62ba1b"/>
<path d="M320 675 c0 -13 17 -15 123 -13 160 4 158 22 -3 26 -103 2 -120 0 -120 -13z" fill="#62ba1b"/>
<path d="M320 605 c0 -13 17 -15 123 -13 160 4 158 22 -3 26 -103 2 -120 0 -120 -13z" fill="#62ba1b"/>
<path d="M320 535 c0 -13 17 -15 123 -13 160 4 158 22 -3 26 -103 2 -120 0 -120 -13z" fill="#62ba1b"/>
</g>
</svg>